<?xml version="1.0" encoding="UTF-8" standalone="no"?>
<!-- Created with Inkscape (http://www.inkscape.org/) -->

<svg
   width="93.675819mm"
   height="71.651039mm"
   viewBox="0 0 93.675818 71.651039"
   version="1.1"
   id="svg5"
   inkscape:version="1.1.2 (b8e25be833, 2022-02-05)"
   sodipodi:docname="4x4_grid.svg"
   xmlns:inkscape="http://www.inkscape.org/namespaces/inkscape"
   xmlns:sodipodi="http://sodipodi.sourceforge.net/DTD/sodipodi-0.dtd"
   xmlns="http://www.w3.org/2000/svg"
   xmlns:svg="http://www.w3.org/2000/svg">
  <sodipodi:namedview
     id="namedview7"
     pagecolor="#ffffff"
     bordercolor="#666666"
     borderopacity="1.0"
     inkscape:pageshadow="2"
     inkscape:pageopacity="0.0"
     inkscape:pagecheckerboard="0"
     inkscape:document-units="mm"
     showgrid="false"
     inkscape:zoom="1.466344"
     inkscape:cx="109.4559"
     inkscape:cy="116.61657"
     inkscape:window-width="1920"
     inkscape:window-height="1009"
     inkscape:window-x="-8"
     inkscape:window-y="-8"
     inkscape:window-maximized="1"
     inkscape:current-layer="layer1" />
  <defs
     id="defs2" />
  <g
     inkscape:label="Layer 1"
     inkscape:groupmode="layer"
     id="layer1"
     transform="translate(-27.372517,-29.075364)">
    <rect
       style="fill:#cdcdcd;fill-opacity:1;stroke:#cdcdcd;stroke-width:1.04306;stroke-opacity:1"
       id="rect846"
       width="12.630619"
       height="13.741704"
       x="68.710365"
       y="35.728432"
       transform="matrix(1,0,-0.39391932,0.91914502,0,0)"
       ry="2.4403372" />
    <rect
       style="fill:#cdcdcd;fill-opacity:1;stroke:#cdcdcd;stroke-width:1.04306;stroke-opacity:1"
       id="rect846-2"
       width="12.630619"
       height="13.741704"
       x="86.710373"
       y="35.728432"
       transform="matrix(1,0,-0.39391932,0.91914502,0,0)"
       ry="2.4403372" />
    <rect
       style="fill:#cdcdcd;fill-opacity:1;stroke:#cdcdcd;stroke-width:1.04306;stroke-opacity:1"
       id="rect846-7"
       width="12.630619"
       height="13.741704"
       x="104.71037"
       y="35.728432"
       transform="matrix(1,0,-0.39391932,0.91914502,0,0)"
       ry="2.4403372" />
    <rect
       style="fill:#cdcdcd;fill-opacity:1;stroke:#cdcdcd;stroke-width:1.04306;stroke-opacity:1"
       id="rect846-7-3"
       width="12.630619"
       height="13.741704"
       x="122.71037"
       y="35.728432"
       transform="matrix(1,0,-0.39391932,0.91914502,0,0)"
       ry="2.4403372" />
    <rect
       style="fill:#cdcdcd;fill-opacity:1;stroke:#cdcdcd;stroke-width:1.04306;stroke-opacity:1"
       id="rect846-9"
       width="12.630619"
       height="13.741704"
       x="68.638634"
       y="54.050938"
       transform="matrix(1,0,-0.39391932,0.91914502,0,0)"
       ry="2.4403372" />
    <rect
       style="fill:#cdcdcd;fill-opacity:1;stroke:#cdcdcd;stroke-width:1.04306;stroke-opacity:1"
       id="rect846-2-3"
       width="12.630619"
       height="13.741704"
       x="86.638641"
       y="54.050938"
       transform="matrix(1,0,-0.39391932,0.91914502,0,0)"
       ry="2.4403372" />
    <rect
       style="fill:#cdcdcd;fill-opacity:1;stroke:#cdcdcd;stroke-width:1.04306;stroke-opacity:1"
       id="rect846-7-4"
       width="12.630619"
       height="13.741704"
       x="104.63863"
       y="54.050938"
       transform="matrix(1,0,-0.39391932,0.91914502,0,0)"
       ry="2.4403372" />
    <rect
       style="fill:#cdcdcd;fill-opacity:1;stroke:#cdcdcd;stroke-width:1.04306;stroke-opacity:1"
       id="rect846-7-3-9"
       width="12.630619"
       height="13.741704"
       x="122.63863"
       y="54.050938"
       transform="matrix(1,0,-0.39391932,0.91914502,0,0)"
       ry="2.4403372" />
    <rect
       style="fill:#cdcdcd;fill-opacity:1;stroke:#cdcdcd;stroke-width:1.04306;stroke-opacity:1"
       id="rect846-9-1"
       width="12.630619"
       height="13.741704"
       x="68.892586"
       y="72.729919"
       transform="matrix(1,0,-0.39391932,0.91914502,0,0)"
       ry="2.4403372" />
    <rect
       style="fill:#cdcdcd;fill-opacity:1;stroke:#cdcdcd;stroke-width:1.04306;stroke-opacity:1"
       id="rect846-2-3-3"
       width="12.630619"
       height="13.741704"
       x="86.892593"
       y="72.729919"
       transform="matrix(1,0,-0.39391932,0.91914502,0,0)"
       ry="2.4403372" />
    <rect
       style="fill:#cdcdcd;fill-opacity:1;stroke:#cdcdcd;stroke-width:1.04306;stroke-opacity:1"
       id="rect846-7-4-6"
       width="12.630619"
       height="13.741704"
       x="104.89259"
       y="72.729919"
       transform="matrix(1,0,-0.39391932,0.91914502,0,0)"
       ry="2.4403372" />
    <rect
       style="fill:#cdcdcd;fill-opacity:1;stroke:#cdcdcd;stroke-width:1.04306;stroke-opacity:1"
       id="rect846-7-3-9-1"
       width="12.630619"
       height="13.741704"
       x="122.89259"
       y="72.729919"
       transform="matrix(1,0,-0.39391932,0.91914502,0,0)"
       ry="2.4403372" />
    <rect
       style="fill:#cdcdcd;fill-opacity:1;stroke:#cdcdcd;stroke-width:1.04306;stroke-opacity:1"
       id="rect846-9-4"
       width="12.630619"
       height="13.741704"
       x="68.512543"
       y="91.250755"
       transform="matrix(1,0,-0.39391932,0.91914502,0,0)"
       ry="2.4403372" />
    <rect
       style="fill:#cdcdcd;fill-opacity:1;stroke:#cdcdcd;stroke-width:1.04306;stroke-opacity:1"
       id="rect846-2-3-39"
       width="12.630619"
       height="13.741704"
       x="86.51255"
       y="91.250755"
       transform="matrix(1,0,-0.39391932,0.91914502,0,0)"
       ry="2.4403372" />
    <rect
       style="fill:#cdcdcd;fill-opacity:1;stroke:#cdcdcd;stroke-width:1.04306;stroke-opacity:1"
       id="rect846-7-4-2"
       width="12.630619"
       height="13.741704"
       x="104.51255"
       y="91.250755"
       transform="matrix(1,0,-0.39391932,0.91914502,0,0)"
       ry="2.4403372" />
    <rect
       style="fill:#cdcdcd;fill-opacity:1;stroke:#cdcdcd;stroke-width:1.04306;stroke-opacity:1"
       id="rect846-7-3-9-9"
       width="12.630619"
       height="13.741704"
       x="122.51255"
       y="91.250755"
       transform="matrix(1,0,-0.39391932,0.91914502,0,0)"
       ry="2.4403372" />
    <path
       style="fill:#cdcdcd;fill-opacity:1;stroke:#cdcdcd;stroke-width:0.250159px;stroke-linecap:butt;stroke-linejoin:miter;stroke-opacity:1"
       d="m 71.598775,29.12552 -30.674349,70.93591 -0.363728,0.60014"
       id="path1717" />
    <path
       style="fill:#cdcdcd;fill-opacity:1;stroke:#cdcdcd;stroke-width:0.248709px;stroke-linecap:butt;stroke-linejoin:miter;stroke-opacity:1"
       d="m 89.401569,29.124304 -30.319346,70.936826 -0.359518,0.60015"
       id="path1717-5" />
    <path
       style="fill:#cdcdcd;fill-opacity:1;stroke:#cdcdcd;stroke-width:0.248396px;stroke-linecap:butt;stroke-linejoin:miter;stroke-opacity:1"
       d="M 107.50289,29.124281 77.183354,99.882266 76.823833,100.48091"
       id="path1717-7" />
    <path
       style="fill:#cdcdcd;fill-opacity:1;stroke:#cdcdcd;stroke-width:0.223559px;stroke-linecap:butt;stroke-linejoin:miter;stroke-opacity:1"
       d="M 42.014735,47.563982 H 120.08013"
       id="path2125" />
    <path
       style="fill:#cdcdcd;fill-opacity:1;stroke:#cdcdcd;stroke-width:0.223559px;stroke-linecap:butt;stroke-linejoin:miter;stroke-opacity:1"
       d="M 36.201897,64.732675 H 114.2673"
       id="path2125-8" />
    <path
       style="fill:#cdcdcd;fill-opacity:1;stroke:#cdcdcd;stroke-width:0.223559px;stroke-linecap:butt;stroke-linejoin:miter;stroke-opacity:1"
       d="M 29.921272,81.756009 H 107.98667"
       id="path2125-1" />
  </g>
</svg>
