<?xml version="1.0" encoding="UTF-8" standalone="no"?>
<!-- Created with Inkscape (http://www.inkscape.org/) -->

<svg
   width="118.77986mm"
   height="88.070236mm"
   viewBox="0 0 118.77986 88.070236"
   version="1.1"
   id="svg5"
   inkscape:version="1.1.2 (b8e25be833, 2022-02-05)"
   sodipodi:docname="5x5_grid.svg"
   xmlns:inkscape="http://www.inkscape.org/namespaces/inkscape"
   xmlns:sodipodi="http://sodipodi.sourceforge.net/DTD/sodipodi-0.dtd"
   xmlns="http://www.w3.org/2000/svg"
   xmlns:svg="http://www.w3.org/2000/svg">
  <sodipodi:namedview
     id="namedview7"
     pagecolor="#ffffff"
     bordercolor="#666666"
     borderopacity="1.0"
     inkscape:pageshadow="2"
     inkscape:pageopacity="0.0"
     inkscape:pagecheckerboard="0"
     inkscape:document-units="mm"
     showgrid="false"
     inkscape:zoom="1.466344"
     inkscape:cx="80.131266"
     inkscape:cy="116.61657"
     inkscape:window-width="1920"
     inkscape:window-height="1009"
     inkscape:window-x="-8"
     inkscape:window-y="-8"
     inkscape:window-maximized="1"
     inkscape:current-layer="layer1" />
  <defs
     id="defs2" />
  <g
     inkscape:label="Layer 1"
     inkscape:groupmode="layer"
     id="layer1"
     transform="translate(-20.268459,-29.075461)">
    <rect
       style="fill:#cdcdcd;fill-opacity:1;stroke:#cdcdcd;stroke-width:1.04306;stroke-opacity:1"
       id="rect846"
       width="12.630619"
       height="13.741704"
       x="68.710365"
       y="35.728432"
       transform="matrix(1,0,-0.39391932,0.91914502,0,0)"
       ry="2.4403372" />
    <rect
       style="fill:#cdcdcd;fill-opacity:1;stroke:#cdcdcd;stroke-width:1.04306;stroke-opacity:1"
       id="rect846-2"
       width="12.630619"
       height="13.741704"
       x="86.710373"
       y="35.728432"
       transform="matrix(1,0,-0.39391932,0.91914502,0,0)"
       ry="2.4403372" />
    <rect
       style="fill:#cdcdcd;fill-opacity:1;stroke:#cdcdcd;stroke-width:1.04306;stroke-opacity:1"
       id="rect846-7"
       width="12.630619"
       height="13.741704"
       x="104.71037"
       y="35.728432"
       transform="matrix(1,0,-0.39391932,0.91914502,0,0)"
       ry="2.4403372" />
    <rect
       style="fill:#cdcdcd;fill-opacity:1;stroke:#cdcdcd;stroke-width:1.04306;stroke-opacity:1"
       id="rect846-7-3"
       width="12.630619"
       height="13.741704"
       x="122.71037"
       y="35.728432"
       transform="matrix(1,0,-0.39391932,0.91914502,0,0)"
       ry="2.4403372" />
    <rect
       style="fill:#cdcdcd;fill-opacity:1;stroke:#cdcdcd;stroke-width:1.04306;stroke-opacity:1"
       id="rect846-7-1"
       width="12.630619"
       height="13.741704"
       x="140.71036"
       y="35.728432"
       transform="matrix(1,0,-0.39391932,0.91914502,0,0)"
       ry="2.4403372" />
    <rect
       style="fill:#cdcdcd;fill-opacity:1;stroke:#cdcdcd;stroke-width:1.04306;stroke-opacity:1"
       id="rect846-9"
       width="12.630619"
       height="13.741704"
       x="68.638634"
       y="54.050938"
       transform="matrix(1,0,-0.39391932,0.91914502,0,0)"
       ry="2.4403372" />
    <rect
       style="fill:#cdcdcd;fill-opacity:1;stroke:#cdcdcd;stroke-width:1.04306;stroke-opacity:1"
       id="rect846-2-3"
       width="12.630619"
       height="13.741704"
       x="86.638641"
       y="54.050938"
       transform="matrix(1,0,-0.39391932,0.91914502,0,0)"
       ry="2.4403372" />
    <rect
       style="fill:#cdcdcd;fill-opacity:1;stroke:#cdcdcd;stroke-width:1.04306;stroke-opacity:1"
       id="rect846-7-4"
       width="12.630619"
       height="13.741704"
       x="104.63863"
       y="54.050938"
       transform="matrix(1,0,-0.39391932,0.91914502,0,0)"
       ry="2.4403372" />
    <rect
       style="fill:#cdcdcd;fill-opacity:1;stroke:#cdcdcd;stroke-width:1.04306;stroke-opacity:1"
       id="rect846-7-3-9"
       width="12.630619"
       height="13.741704"
       x="122.63863"
       y="54.050938"
       transform="matrix(1,0,-0.39391932,0.91914502,0,0)"
       ry="2.4403372" />
    <rect
       style="fill:#cdcdcd;fill-opacity:1;stroke:#cdcdcd;stroke-width:1.04306;stroke-opacity:1"
       id="rect846-7-1-2"
       width="12.630619"
       height="13.741704"
       x="140.63861"
       y="54.050938"
       transform="matrix(1,0,-0.39391932,0.91914502,0,0)"
       ry="2.4403372" />
    <rect
       style="fill:#cdcdcd;fill-opacity:1;stroke:#cdcdcd;stroke-width:1.04306;stroke-opacity:1"
       id="rect846-9-1"
       width="12.630619"
       height="13.741704"
       x="68.892586"
       y="72.729919"
       transform="matrix(1,0,-0.39391932,0.91914502,0,0)"
       ry="2.4403372" />
    <rect
       style="fill:#cdcdcd;fill-opacity:1;stroke:#cdcdcd;stroke-width:1.04306;stroke-opacity:1"
       id="rect846-2-3-3"
       width="12.630619"
       height="13.741704"
       x="86.892593"
       y="72.729919"
       transform="matrix(1,0,-0.39391932,0.91914502,0,0)"
       ry="2.4403372" />
    <rect
       style="fill:#cdcdcd;fill-opacity:1;stroke:#cdcdcd;stroke-width:1.04306;stroke-opacity:1"
       id="rect846-7-4-6"
       width="12.630619"
       height="13.741704"
       x="104.89259"
       y="72.729919"
       transform="matrix(1,0,-0.39391932,0.91914502,0,0)"
       ry="2.4403372" />
    <rect
       style="fill:#cdcdcd;fill-opacity:1;stroke:#cdcdcd;stroke-width:1.04306;stroke-opacity:1"
       id="rect846-7-3-9-1"
       width="12.630619"
       height="13.741704"
       x="122.89259"
       y="72.729919"
       transform="matrix(1,0,-0.39391932,0.91914502,0,0)"
       ry="2.4403372" />
    <rect
       style="fill:#cdcdcd;fill-opacity:1;stroke:#cdcdcd;stroke-width:1.04306;stroke-opacity:1"
       id="rect846-7-1-2-7"
       width="12.630619"
       height="13.741704"
       x="140.89259"
       y="72.729919"
       transform="matrix(1,0,-0.39391932,0.91914502,0,0)"
       ry="2.4403372" />
    <rect
       style="fill:#cdcdcd;fill-opacity:1;stroke:#cdcdcd;stroke-width:1.04306;stroke-opacity:1"
       id="rect846-9-4"
       width="12.630619"
       height="13.741704"
       x="68.512543"
       y="91.250755"
       transform="matrix(1,0,-0.39391932,0.91914502,0,0)"
       ry="2.4403372" />
    <rect
       style="fill:#cdcdcd;fill-opacity:1;stroke:#cdcdcd;stroke-width:1.04306;stroke-opacity:1"
       id="rect846-2-3-39"
       width="12.630619"
       height="13.741704"
       x="86.51255"
       y="91.250755"
       transform="matrix(1,0,-0.39391932,0.91914502,0,0)"
       ry="2.4403372" />
    <rect
       style="fill:#cdcdcd;fill-opacity:1;stroke:#cdcdcd;stroke-width:1.04306;stroke-opacity:1"
       id="rect846-7-4-2"
       width="12.630619"
       height="13.741704"
       x="104.51255"
       y="91.250755"
       transform="matrix(1,0,-0.39391932,0.91914502,0,0)"
       ry="2.4403372" />
    <rect
       style="fill:#cdcdcd;fill-opacity:1;stroke:#cdcdcd;stroke-width:1.04306;stroke-opacity:1"
       id="rect846-7-3-9-9"
       width="12.630619"
       height="13.741704"
       x="122.51255"
       y="91.250755"
       transform="matrix(1,0,-0.39391932,0.91914502,0,0)"
       ry="2.4403372" />
    <rect
       style="fill:#cdcdcd;fill-opacity:1;stroke:#cdcdcd;stroke-width:1.04306;stroke-opacity:1"
       id="rect846-7-1-2-9"
       width="12.630619"
       height="13.741704"
       x="140.51253"
       y="91.250755"
       transform="matrix(1,0,-0.39391932,0.91914502,0,0)"
       ry="2.4403372" />
    <rect
       style="fill:#cdcdcd;fill-opacity:1;stroke:#cdcdcd;stroke-width:1.04306;stroke-opacity:1"
       id="rect846-9-1-1"
       width="12.630619"
       height="13.741704"
       x="68.766495"
       y="109.92973"
       transform="matrix(1,0,-0.39391932,0.91914502,0,0)"
       ry="2.4403372" />
    <rect
       style="fill:#cdcdcd;fill-opacity:1;stroke:#cdcdcd;stroke-width:1.04306;stroke-opacity:1"
       id="rect846-2-3-3-7"
       width="12.630619"
       height="13.741704"
       x="86.766502"
       y="109.92973"
       transform="matrix(1,0,-0.39391932,0.91914502,0,0)"
       ry="2.4403372" />
    <rect
       style="fill:#cdcdcd;fill-opacity:1;stroke:#cdcdcd;stroke-width:1.04306;stroke-opacity:1"
       id="rect846-7-4-6-1"
       width="12.630619"
       height="13.741704"
       x="104.76651"
       y="109.92973"
       transform="matrix(1,0,-0.39391932,0.91914502,0,0)"
       ry="2.4403372" />
    <rect
       style="fill:#cdcdcd;fill-opacity:1;stroke:#cdcdcd;stroke-width:1.04306;stroke-opacity:1"
       id="rect846-7-3-9-1-6"
       width="12.630619"
       height="13.741704"
       x="122.76651"
       y="109.92973"
       transform="matrix(1,0,-0.39391932,0.91914502,0,0)"
       ry="2.4403372" />
    <rect
       style="fill:#cdcdcd;fill-opacity:1;stroke:#cdcdcd;stroke-width:1.04306;stroke-opacity:1"
       id="rect846-7-1-2-7-9"
       width="12.630619"
       height="13.741704"
       x="140.76651"
       y="109.92973"
       transform="matrix(1,0,-0.39391932,0.91914502,0,0)"
       ry="2.4403372" />
    <path
       style="fill:#cdcdcd;fill-opacity:1;stroke:#cdcdcd;stroke-width:0.305527px;stroke-linecap:butt;stroke-linejoin:miter;stroke-opacity:1"
       d="m 71.573544,29.136196 -37.224062,87.193374 -0.441393,0.73769"
       id="path1717" />
    <path
       style="fill:#cdcdcd;fill-opacity:1;stroke:#cdcdcd;stroke-width:0.305527px;stroke-linecap:butt;stroke-linejoin:miter;stroke-opacity:1"
       d="M 89.375462,29.135441 52.1514,116.32882 l -0.441393,0.73769"
       id="path1717-5" />
    <path
       style="fill:#cdcdcd;fill-opacity:1;stroke:#cdcdcd;stroke-width:0.305527px;stroke-linecap:butt;stroke-linejoin:miter;stroke-opacity:1"
       d="m 107.47668,29.135441 -37.224052,87.193379 -0.441393,0.73769"
       id="path1717-7" />
    <path
       style="fill:#cdcdcd;fill-opacity:1;stroke:#cdcdcd;stroke-width:0.305527px;stroke-linecap:butt;stroke-linejoin:miter;stroke-opacity:1"
       d="M 125.5779,29.135441 88.353842,116.32881 87.912449,117.0665"
       id="path1717-8" />
    <path
       style="fill:#cdcdcd;fill-opacity:1;stroke:#cdcdcd;stroke-width:0.247144px;stroke-linecap:butt;stroke-linejoin:miter;stroke-opacity:1"
       d="M 42.584422,47.563982 H 137.99069"
       id="path2125" />
    <path
       style="fill:#cdcdcd;fill-opacity:1;stroke:#cdcdcd;stroke-width:0.247144px;stroke-linecap:butt;stroke-linejoin:miter;stroke-opacity:1"
       d="M 35.480362,64.732675 H 130.88663"
       id="path2125-8" />
    <path
       style="fill:#cdcdcd;fill-opacity:1;stroke:#cdcdcd;stroke-width:0.247144px;stroke-linecap:butt;stroke-linejoin:miter;stroke-opacity:1"
       d="M 27.804604,81.756009 H 123.21087"
       id="path2125-1" />
    <path
       style="fill:#cdcdcd;fill-opacity:1;stroke:#cdcdcd;stroke-width:0.247144px;stroke-linecap:butt;stroke-linejoin:miter;stroke-opacity:1"
       d="M 20.700546,98.924699 H 116.10681"
       id="path2125-6" />
  </g>
</svg>
